<?xml version="1.0" encoding="UTF-8"?>
<svg width="77px" height="19px" viewBox="0 0 77 19" version="1.1" xmlns="http://www.w3.org/2000/svg" xmlns:xlink="http://www.w3.org/1999/xlink">
    <!-- Generator: Sketch 48.2 (47327) - http://www.bohemiancoding.com/sketch -->
    <title>Logo</title>
    <desc>Created with Sketch.</desc>
    <defs></defs>
    <g id="Header" stroke="none" stroke-width="1" fill="none" fill-rule="evenodd" transform="translate(-141.000000, -11.000000)">
        <g id="Logo">
            <g transform="translate(142.000000, 7.000000)">
                <g transform="translate(-1.000000, 4.000000)">
                    <path d="M8.02,13.95 C7.286663,14.7033371 6.2666732,15.08 4.96,15.08 C4.1733294,15.08 3.4400034,14.9066684 2.76,14.56 C2.0799966,14.2133316 1.4866692,13.7200032 0.98,13.08 L1.92,11.6 C2.3600022,12.1200026 2.8433307,12.5166653 3.37,12.79 C3.8966693,13.0633347 4.4199974,13.2 4.94,13.2 C5.6600036,13.2 6.2133314,12.9833355 6.6,12.55 C6.9866686,12.1166645 7.18,11.500004 7.18,10.7 L7.18,2.76 L2.24,2.76 L2.24,1 L9.12,1 L9.12,10.76 C9.12,12.1333402 8.753337,13.1966629 8.02,13.95 Z M18.95,2.99 C18.2499965,2.7833323 17.6066696,2.68 17.02,2.68 C16.2066626,2.68 15.5566691,2.8366651 15.07,3.15 C14.5833309,3.4633349 14.34,3.8933306 14.34,4.44 C14.34,4.9333358 14.4866652,5.3366651 14.78,5.65 C15.0733348,5.9633349 15.4333312,6.2099991 15.86,6.39 C16.2866688,6.5700009 16.8799962,6.7799988 17.64,7.02 C18.5866714,7.3133348 19.3533304,7.593332 19.94,7.86 C20.5266696,8.126668 21.0266646,8.5233307 21.44,9.05 C21.8533354,9.5766693 22.06,10.273329 22.06,11.14 C22.06,11.940004 21.8433355,12.639997 21.41,13.24 C20.9766645,13.840003 20.3700039,14.3033317 19.59,14.63 C18.8099961,14.9566683 17.9133384,15.12 16.9,15.12 C15.8733282,15.12 14.8733382,14.920002 13.9,14.52 C12.9266618,14.119998 12.0866702,13.58667 11.38,12.92 L12.24,11.26 C12.90667,11.9133366 13.6566625,12.4166649 14.49,12.77 C15.3233375,13.1233351 16.1333294,13.3 16.92,13.3 C17.853338,13.3 18.5899973,13.1166685 19.13,12.75 C19.6700027,12.3833315 19.94,11.8866698 19.94,11.26 C19.94,10.7666642 19.7933348,10.3600016 19.5,10.04 C19.2066652,9.7199984 18.8366689,9.4666676 18.39,9.28 C17.9433311,9.0933324 17.3400038,8.8866678 16.58,8.66 C15.646662,8.3799986 14.8866696,8.106668 14.3,7.84 C13.7133304,7.573332 13.2166687,7.1800026 12.81,6.66 C12.4033313,6.1399974 12.2,5.4533376 12.2,4.6 C12.2,3.8533296 12.4066646,3.1933362 12.82,2.62 C13.2333354,2.0466638 13.8133296,1.6066682 14.56,1.3 C15.3066704,0.9933318 16.1733284,0.84 17.16,0.84 C18.0000042,0.84 18.8233293,0.9633321 19.63,1.21 C20.4366707,1.4566679 21.1533302,1.7866646 21.78,2.2 L20.98,3.92 C20.3266634,3.5066646 19.6500035,3.1966677 18.95,2.99 Z" id="JSJITSU" fill="#000000"></path>
                    <path d="M30.14,13.95 C29.406663,14.7033371 28.3866732,15.08 27.08,15.08 C26.2933294,15.08 25.5600034,14.9066684 24.88,14.56 C24.1999966,14.2133316 23.6066692,13.7200032 23.1,13.08 L24.04,11.6 C24.4800022,12.1200026 24.9633307,12.5166653 25.49,12.79 C26.0166693,13.0633347 26.5399974,13.2 27.06,13.2 C27.7800036,13.2 28.3333314,12.9833355 28.72,12.55 C29.1066686,12.1166645 29.3,11.500004 29.3,10.7 L29.3,2.76 L24.36,2.76 L24.36,1 L31.24,1 L31.24,10.76 C31.24,12.1333402 30.873337,13.1966629 30.14,13.95 Z" id="Path" fill="#FFFFFF"></path>
                    <polygon id="Path" fill="#FFFFFF" points="34.92 1 36.84 1 36.84 15 34.92 15"></polygon>
                    <polygon id="Path" fill="#FFFFFF" points="39.04 1 49.98 1 49.98 2.76 45.46 2.76 45.46 15 43.54 15 43.54 2.76 39.04 2.76"></polygon>
                    <path d="M58.33,2.99 C57.6299965,2.7833323 56.9866696,2.68 56.4,2.68 C55.5866626,2.68 54.9366691,2.8366651 54.45,3.15 C53.9633309,3.4633349 53.72,3.8933306 53.72,4.44 C53.72,4.9333358 53.8666652,5.3366651 54.16,5.65 C54.4533348,5.9633349 54.8133312,6.2099991 55.24,6.39 C55.6666688,6.5700009 56.2599962,6.7799988 57.02,7.02 C57.9666714,7.3133348 58.7333304,7.593332 59.32,7.86 C59.9066696,8.126668 60.4066646,8.5233307 60.82,9.05 C61.2333354,9.5766693 61.44,10.273329 61.44,11.14 C61.44,11.940004 61.2233355,12.639997 60.79,13.24 C60.3566645,13.840003 59.7500039,14.3033317 58.97,14.63 C58.1899961,14.9566683 57.2933384,15.12 56.28,15.12 C55.2533282,15.12 54.2533382,14.920002 53.28,14.52 C52.3066618,14.119998 51.4666702,13.58667 50.76,12.92 L51.62,11.26 C52.28667,11.9133366 53.0366625,12.4166649 53.87,12.77 C54.7033375,13.1233351 55.5133294,13.3 56.3,13.3 C57.233338,13.3 57.9699973,13.1166685 58.51,12.75 C59.0500027,12.3833315 59.32,11.8866698 59.32,11.26 C59.32,10.7666642 59.1733348,10.3600016 58.88,10.04 C58.5866652,9.7199984 58.2166689,9.4666676 57.77,9.28 C57.3233311,9.0933324 56.7200038,8.8866678 55.96,8.66 C55.026662,8.3799986 54.2666696,8.106668 53.68,7.84 C53.0933304,7.573332 52.5966687,7.1800026 52.19,6.66 C51.7833313,6.1399974 51.58,5.4533376 51.58,4.6 C51.58,3.8533296 51.7866646,3.1933362 52.2,2.62 C52.6133354,2.0466638 53.1933296,1.6066682 53.94,1.3 C54.6866704,0.9933318 55.5533284,0.84 56.54,0.84 C57.3800042,0.84 58.2033293,0.9633321 59.01,1.21 C59.8166707,1.4566679 60.5333302,1.7866646 61.16,2.2 L60.36,3.92 C59.7066634,3.5066646 59.0300035,3.1966677 58.33,2.99 Z" id="Path" fill="#FFFFFF"></path>
                    <path d="M67.19,12.31 C67.9033369,13.0366703 68.8866604,13.4 70.14,13.4 C71.3800062,13.4 72.3533298,13.0366703 73.06,12.31 C73.7666702,11.5833297 74.12,10.5733398 74.12,9.28 L74.12,1 L76.04,1 L76.04,9.28 C76.04,11.1066758 75.5166719,12.5399948 74.47,13.58 C73.4233281,14.6200052 71.9800092,15.14 70.14,15.14 C68.2866574,15.14 66.8333386,14.6200052 65.78,13.58 C64.7266614,12.5399948 64.2,11.1066758 64.2,9.28 L64.2,1 L66.12,1 L66.12,9.28 C66.12,10.5733398 66.4766631,11.5833297 67.19,12.31 Z" id="Path" fill="#FFFFFF"></path>
                    <path d="M1.99242598,17.5 L21,17.5" id="Line-2" stroke="#000000" stroke-width="2" stroke-linecap="square"></path>
                </g>
            </g>
        </g>
    </g>
</svg>